<?xml version="1.0" standalone="no"?>
<!DOCTYPE svg PUBLIC "-//W3C//DTD SVG 20010904//EN"
 "http://www.w3.org/TR/2001/REC-SVG-20010904/DTD/svg10.dtd">
<svg version="1.0" xmlns="http://www.w3.org/2000/svg"
 width="209.000000pt" height="241.000000pt" viewBox="0 0 209.000000 241.000000"
 preserveAspectRatio="xMidYMid meet">

<g transform="translate(0.000000,241.000000) scale(0.100000,-0.100000)"
fill="#000000" stroke="none">
<path d="M885 2393 c-296 -24 -540 -77 -782 -170 l-93 -36 0 -91 c0 -127 18
-492 30 -606 35 -327 111 -596 222 -785 89 -151 253 -333 403 -447 65 -49 263
-179 336 -221 l46 -26 109 65 c415 249 649 505 772 844 93 256 132 532 148
1046 l7 220 -79 31 c-335 133 -788 204 -1119 176z m225 -28 c19 -22 4 -64 -25
-71 -47 -12 -71 31 -38 68 20 22 46 23 63 3z m-258 -96 l38 -59 -30 0 c-19 0
-30 5 -30 14 0 9 -8 12 -24 9 -16 -3 -23 -10 -19 -19 3 -10 -2 -14 -18 -14
-18 0 -20 3 -11 12 18 18 15 27 -8 21 -24 -6 -26 11 -5 29 40 33 45 41 46 71
0 29 1 30 12 13 7 -10 29 -45 49 -77z m153 75 c9 -9 18 -29 22 -44 3 -19 10
-27 22 -24 76 14 84 14 71 -1 -7 -9 -29 -15 -52 -15 -31 0 -45 -6 -60 -26 -16
-20 -28 -24 -57 -22 -36 3 -36 3 -33 45 2 24 -3 54 -12 72 l-17 31 50 0 c32 0
55 -6 66 -16z m282 -9 c29 -20 37 -59 19 -94 -17 -33 -34 -41 -82 -41 -38 0
-38 0 -24 50 6 23 6 48 1 68 -10 32 -10 32 27 32 21 0 47 -7 59 -15z m-547
-31 c0 -7 -11 -9 -26 -6 -26 5 -26 4 -22 -39 3 -24 8 -52 12 -61 7 -15 3 -18
-18 -18 -24 0 -26 3 -26 44 0 46 -11 61 -45 61 -11 0 -21 7 -23 16 -2 13 10
18 65 25 67 9 82 5 83 -22z m741 25 c26 -14 16 -28 -16 -21 -50 9 -82 -48 -55
-99 13 -23 40 -26 40 -4 0 8 -5 15 -12 15 -9 0 -9 3 0 12 19 19 51 -16 36 -40
-13 -20 -36 -26 -70 -18 -30 8 -57 65 -48 101 13 51 78 80 125 54z m-915 -47
c-38 -12 -39 -12 -26 -27 7 -8 21 -15 31 -15 29 0 50 -38 37 -66 -21 -46 -89
-42 -96 5 -4 28 24 28 31 -1 5 -18 8 -19 22 -8 23 19 14 32 -31 45 -36 10 -39
13 -39 45 0 31 4 36 35 46 30 10 36 9 41 -5 4 -9 1 -17 -5 -19z m1004 28 c5 0
3 -18 -5 -40 -13 -37 -13 -41 6 -50 27 -15 38 -5 45 41 5 29 11 39 25 39 23 0
24 -10 4 -57 -8 -19 -15 -53 -15 -74 0 -32 -4 -39 -19 -39 -26 0 -34 15 -21
40 9 18 8 20 -16 20 -17 0 -28 -6 -31 -20 -6 -22 -6 -22 -27 -14 -11 4 -13 11
-6 30 7 18 5 26 -7 32 -18 11 -9 32 13 32 9 0 14 11 14 36 0 29 3 35 16 30 9
-3 20 -6 24 -6z m-1117 -40 c4 -17 0 -20 -28 -20 -38 0 -49 -11 -40 -41 5 -16
10 -18 21 -8 7 6 21 8 30 5 9 -4 23 -1 31 5 21 18 28 1 8 -21 -10 -11 -29 -20
-42 -20 -18 0 -24 -5 -21 -17 5 -25 36 -28 59 -7 18 16 19 16 19 -8 0 -21 -6
-26 -32 -31 -18 -4 -42 -9 -54 -12 -19 -6 -22 -1 -28 41 -3 27 -17 61 -32 81
-18 24 -21 34 -12 37 7 3 33 11 58 19 59 20 57 20 63 -3z m1225 -58 c-14 -36
-33 -44 -23 -9 4 12 9 30 12 41 3 10 9 14 14 9 5 -5 4 -22 -3 -41z m47 8 c-5
-14 -2 -20 9 -20 9 0 16 7 16 15 0 8 5 15 11 15 7 0 8 -7 4 -17 -4 -10 -10
-26 -12 -35 -3 -10 -10 -18 -15 -18 -6 0 -8 7 -4 15 6 17 -9 21 -19 5 -18 -30
-27 4 -10 43 10 24 28 22 20 -3z m-680 -50 c-10 -11 -16 -20 -14 -20 3 0 22 9
44 20 22 11 57 20 79 20 38 0 39 0 21 -20 -22 -24 -18 -25 28 -5 20 8 58 15
84 15 44 -1 46 -2 29 -15 -28 -21 -14 -28 31 -16 54 15 121 15 105 -1 -22 -22
-12 -27 53 -25 72 2 107 -15 64 -32 -19 -8 -9 -10 48 -10 75 -1 97 -13 67 -36
-17 -13 -15 -14 27 -15 31 0 55 -7 72 -20 14 -11 31 -20 38 -20 10 0 10 -3 1
-12 -7 -7 -12 -27 -12 -45 0 -26 4 -33 19 -33 18 0 18 -3 6 -47 -7 -27 -16
-56 -20 -65 -5 -13 -2 -15 14 -11 31 8 27 -23 -14 -121 -7 -15 -5 -17 13 -11
30 9 29 -17 -3 -77 -27 -51 -34 -81 -13 -60 7 7 16 12 20 12 14 0 9 -26 -17
-76 -27 -53 -31 -69 -15 -59 37 23 20 -56 -21 -101 -25 -27 -24 -32 6 -26 14
2 25 2 25 -1 0 -12 -44 -83 -69 -111 -14 -16 -20 -26 -13 -22 7 4 20 5 28 2
12 -4 6 -17 -26 -61 -28 -38 -36 -55 -25 -55 8 0 15 -2 15 -5 0 -13 -40 -67
-64 -86 -29 -22 -29 -23 -7 -31 21 -7 19 -11 -32 -55 -48 -42 -53 -49 -36 -55
10 -4 19 -10 19 -13 0 -11 -54 -54 -82 -66 -33 -14 -36 -25 -7 -32 21 -6 21
-7 -7 -32 -16 -15 -41 -29 -56 -32 -29 -6 -48 -33 -23 -33 8 0 15 -6 15 -12 0
-18 -62 -58 -88 -58 -27 0 -28 -8 -4 -26 16 -12 15 -14 -7 -31 -14 -10 -48
-26 -75 -35 -28 -9 -43 -17 -33 -17 50 -2 -16 -61 -70 -61 -15 -1 -48 -11 -73
-24 l-45 -24 -47 24 c-26 13 -59 24 -74 24 -15 0 -42 9 -60 21 -34 21 -37 38
-6 40 15 0 -62 28 -79 29 -10 0 -99 -81 -99 -91 0 -4 12 -14 26 -22 21 -11 23
-15 11 -25 -11 -9 -20 -4 -47 23 l-34 35 37 34 c20 19 44 50 52 70 8 20 20 36
25 36 6 0 10 5 10 10 0 6 -10 10 -22 10 -26 0 -88 40 -88 58 0 6 7 12 15 12
25 0 6 27 -23 33 -27 5 -82 46 -82 60 0 4 10 7 23 7 l22 1 -22 17 c-12 9 -38
28 -57 42 -41 29 -44 38 -17 48 17 6 12 13 -36 55 -52 45 -53 47 -32 55 l23 9
-26 17 c-23 15 -68 76 -68 92 0 2 8 4 17 4 15 0 14 3 -3 23 -62 71 -73 110
-26 92 12 -4 9 3 -9 22 -24 26 -69 98 -69 110 0 3 11 3 25 1 28 -6 32 3 9 22
-21 18 -55 90 -48 102 3 5 12 7 20 4 18 -7 18 18 1 33 -17 13 -43 89 -34 97 4
4 13 1 22 -6 24 -20 19 8 -10 55 -35 56 -33 109 3 73 18 -18 15 3 -8 53 -27
60 -27 93 1 86 16 -4 19 -2 13 11 -4 9 -12 37 -19 62 -12 42 -11 45 7 48 18 3
20 10 15 48 -2 24 -1 44 3 44 3 0 20 14 36 30 16 17 42 38 58 46 29 16 29 16
22 -10 -6 -26 -6 -26 40 9 49 38 98 48 87 18 -7 -19 8 -12 42 18 40 35 100 45
88 13 -7 -18 -6 -18 51 11 67 34 109 32 74 -3 -21 -21 2 -13 35 12 57 44 113
54 100 19 -5 -12 5 -9 38 10 24 15 59 27 78 27 33 0 34 0 16 -20z m654 -21
c13 -11 22 -21 20 -23 -7 -8 -69 23 -69 34 0 16 23 11 49 -11z m-1535 -10 c10
8 19 6 38 -12 36 -33 36 -101 0 -134 -19 -18 -28 -20 -38 -12 -11 9 -18 8 -29
-1 -11 -9 -20 -6 -45 20 -22 22 -28 36 -21 43 5 5 7 22 5 37 -5 21 0 32 21 49
21 16 31 18 41 10 10 -9 18 -9 28 0z m1789 0 c20 16 72 -30 65 -57 -3 -10 -1
-26 3 -35 13 -23 -47 -82 -67 -66 -10 8 -18 9 -28 0 -10 -8 -19 -6 -38 12 -20
18 -25 33 -25 67 0 34 5 49 25 67 19 18 28 20 38 12 10 -9 18 -9 27 0z m47
-307 c13 -10 23 -33 27 -58 l5 -41 -73 -6 c-40 -3 -76 -4 -78 -1 -13 12 -2 86
14 104 23 25 75 26 105 2z m-1770 -43 c0 -23 -4 -30 -14 -26 -8 3 -37 -2 -65
-11 l-51 -16 48 -28 c26 -15 55 -28 65 -28 10 0 17 -8 17 -20 0 -26 -4 -25
-43 4 -18 13 -56 36 -86 51 l-54 27 52 19 c29 10 67 27 84 38 43 26 47 26 47
-10z m1790 -108 c0 -12 -9 -21 -25 -25 -31 -8 -35 -45 -5 -53 11 -3 20 -14 20
-25 0 -15 -3 -17 -19 -9 -28 15 -33 2 -11 -27 12 -15 20 -40 20 -65 l0 -39
-57 6 c-93 11 -96 13 -90 53 8 45 22 61 62 69 43 8 37 35 -13 59 l-37 17 55
17 c30 10 64 23 75 29 26 15 25 15 25 -7z m-1890 -33 c0 -4 21 -18 46 -31 l46
-23 -71 -41 c-70 -41 -71 -41 -71 -17 0 13 4 24 9 24 5 0 11 15 13 34 3 27 0
36 -14 39 -10 3 -18 14 -18 26 0 23 15 28 23 9 3 -7 6 -4 7 7 1 20 1 20 15 1
8 -11 15 -23 15 -28z m100 -189 c0 -17 -8 -19 -65 -19 -62 0 -65 -1 -65 -24 0
-14 5 -28 10 -31 17 -10 11 -25 -10 -25 -18 0 -20 7 -20 58 l0 57 75 1 c67 1
75 -1 75 -17z m1733 -39 c30 0 37 -4 37 -20 0 -18 -5 -19 -62 -14 -80 7 -88
10 -88 30 0 14 7 16 38 10 20 -3 54 -6 75 -6z m23 -112 c-4 -29 -9 -54 -10
-55 -2 -2 -22 4 -46 12 -23 8 -53 15 -66 15 -18 0 -24 6 -24 21 0 17 5 20 23
16 12 -4 42 -9 66 -13 l43 -7 -7 32 c-5 25 -3 31 10 31 15 0 17 -7 11 -52z
m-1726 -10 c6 -24 13 -49 15 -55 3 -8 -4 -13 -15 -13 -16 0 -20 7 -20 35 0 28
-4 35 -19 35 -15 0 -20 -10 -26 -46 -5 -37 -9 -43 -20 -34 -9 8 -12 22 -8 41
5 25 2 29 -16 29 -16 0 -21 -6 -21 -28 0 -15 5 -33 12 -40 9 -9 9 -12 0 -12
-7 0 -15 0 -19 0 -4 -1 -12 24 -18 55 l-11 55 40 1 c23 1 52 5 66 9 44 14 49
11 60 -32z m1710 -75 c0 -16 -16 -31 -35 -34 -25 -5 -34 -56 -11 -65 8 -3 12
-12 9 -20 -4 -11 -9 -12 -19 -3 -7 6 -22 8 -32 5 -16 -5 -19 -2 -15 16 3 16
-5 32 -27 53 l-31 30 73 11 c40 6 76 12 81 13 4 0 7 -2 7 -6z m-1680 -38 c0
-8 -4 -17 -10 -20 -6 -4 -10 5 -10 20 0 15 4 24 10 20 6 -3 10 -12 10 -20z m9
-51 c3 -3 -12 -21 -32 -42 -20 -21 -37 -41 -37 -44 0 -7 62 6 80 17 11 7 29
-9 30 -26 0 -3 -28 -9 -62 -13 -35 -3 -76 -9 -93 -13 l-29 -6 34 44 c18 24 38
50 44 58 9 12 3 13 -40 8 -44 -5 -53 -3 -56 11 -4 15 4 17 76 13 45 -2 83 -5
85 -7z m1511 -20 c-12 -14 -11 -18 10 -35 14 -10 40 -21 58 -25 33 -6 36 -11
26 -37 -4 -13 -12 -11 -47 9 -49 28 -67 30 -67 9 0 -15 -21 -21 -32 -9 -5 4
25 95 39 117 3 5 10 4 16 -2 7 -7 6 -15 -3 -27z m-1445 -171 c27 -59 27 -83 0
-83 -12 0 -15 6 -10 20 13 40 -55 32 -101 -11 l-22 -20 -10 30 c-10 28 -9 31
8 31 27 0 100 30 100 41 0 5 -7 12 -15 15 -20 8 -19 21 3 27 9 3 18 5 19 6 1
0 13 -25 28 -56z m1457 24 c55 -27 64 -36 57 -50 -9 -15 -15 -13 -58 13 -26
17 -56 30 -65 30 -16 0 -22 21 -9 33 3 4 7 7 7 7 1 0 31 -15 68 -33z m-28 -55
c11 -13 14 -28 10 -49 -4 -22 -2 -32 10 -36 18 -7 20 -16 7 -36 -7 -11 -15 -9
-43 13 -19 14 -49 31 -65 37 -35 12 -35 32 -2 68 24 26 60 27 83 3z m-1400
-133 c-25 -10 -55 -26 -65 -35 -18 -17 -20 -16 -33 2 -13 18 -10 21 52 50 60
28 68 30 80 16 10 -14 6 -18 -34 -33z m1286 11 c-15 -11 -21 -23 -17 -34 6
-15 9 -15 37 -1 57 29 100 5 86 -48 -8 -34 -39 -51 -66 -37 -29 15 -25 33 5
26 21 -5 25 -3 25 15 0 18 -4 20 -22 14 -75 -23 -114 -12 -102 29 10 32 44 65
61 59 13 -5 11 -9 -7 -23z m-1233 -83 l57 6 -19 -29 c-10 -16 -31 -51 -46 -77
-23 -42 -28 -46 -39 -32 -10 12 -10 21 -1 41 10 22 9 28 -6 40 -10 7 -25 14
-34 14 -9 0 -22 7 -29 15 -10 12 -9 15 8 15 12 0 22 9 26 23 l7 22 9 -23 c9
-21 14 -22 67 -15z m1203 -31 c18 -22 9 -60 -16 -64 -28 -4 -58 31 -49 57 8
25 46 28 65 7z m-12 -113 c33 -18 41 -36 20 -49 -6 -4 -19 2 -29 14 -9 12 -22
22 -28 22 -22 0 -23 -31 -3 -53 15 -16 18 -26 11 -37 -8 -13 -11 -12 -24 4
-13 17 -15 17 -21 3 -11 -31 -30 -19 -26 16 3 28 0 35 -23 45 -23 10 -24 15
-14 34 l11 21 17 -22 c17 -22 17 -22 34 -3 17 18 17 20 -5 34 -20 13 -21 17
-9 32 13 15 16 14 35 -13 12 -17 36 -38 54 -48z m38 29 c-24 -24 -31 -6 -10
25 16 24 19 26 22 9 2 -10 -3 -25 -12 -34z m-288 -214 c11 -13 24 -35 27 -51
6 -23 2 -33 -30 -62 -20 -19 -40 -35 -44 -35 -5 0 -14 14 -21 30 -7 17 -26 43
-41 58 -16 15 -29 30 -29 33 0 14 66 49 91 49 14 0 35 -10 47 -22z m-492 -70
c3 -5 1 -15 -6 -21 -10 -9 -14 -9 -17 1 -10 27 -35 43 -48 32 -11 -9 -8 -16
12 -38 21 -23 23 -27 8 -30 -9 -2 -23 5 -30 15 -13 17 -14 17 -32 0 -16 -16
-16 -19 -3 -27 41 -25 45 -29 35 -39 -6 -6 -24 3 -49 25 l-39 33 32 37 c18 20
37 47 43 60 l11 23 38 -30 c21 -17 42 -35 45 -41z m397 -71 c15 -6 27 -14 27
-18 0 -13 -32 -19 -48 -10 -19 11 -46 -13 -47 -42 0 -11 -6 -22 -12 -24 -8 -3
-13 4 -13 16 0 12 -6 21 -15 21 -13 0 -14 4 -4 21 6 13 8 38 5 61 l-6 39 42
-26 c24 -15 55 -32 71 -38z m-339 -29 c-8 -35 -14 -74 -14 -87 0 -20 -2 -21
-15 -11 -8 7 -15 25 -15 40 0 31 -22 45 -49 31 -9 -5 -23 -6 -30 -1 -10 6 -9
9 7 14 12 4 19 13 16 21 -4 9 0 12 13 9 10 -3 34 6 53 20 19 14 38 25 41 26 3
0 0 -28 -7 -62z m187 24 c-12 -2 -21 -9 -21 -15 0 -18 49 -87 61 -87 6 0 1 -9
-12 -19 -28 -23 -35 -20 -42 17 -3 15 -15 39 -26 53 -18 20 -22 22 -31 9 -9
-13 -11 -13 -20 0 -14 22 -14 23 38 52 43 24 48 25 60 10 11 -15 10 -17 -7
-20z m-117 0 c2 -4 -2 -32 -10 -62 -19 -75 -19 -78 21 -86 33 -6 46 -26 26
-38 -7 -5 -101 40 -101 49 0 1 7 18 15 38 8 19 15 51 17 71 2 33 19 48 32 28z"/>
<path d="M1067 2353 c-13 -12 -7 -43 8 -43 9 0 15 9 15 25 0 24 -10 32 -23 18z"/>
<path d="M795 2280 c-3 -5 -1 -10 4 -10 6 0 11 5 11 10 0 6 -2 10 -4 10 -3 0
-8 -4 -11 -10z"/>
<path d="M950 2291 c0 -53 12 -65 30 -32 11 21 0 64 -19 76 -7 4 -11 -11 -11
-44z"/>
<path d="M1230 2310 c0 -11 7 -20 15 -20 8 0 15 -7 15 -15 0 -8 -7 -15 -15
-15 -8 0 -15 -7 -15 -15 0 -20 26 -19 34 1 12 31 6 63 -14 74 -17 9 -20 8 -20
-10z"/>
<path d="M1006 2173 c-10 -3 -39 -18 -64 -34 l-46 -29 32 0 c23 0 32 5 32 16
0 13 7 15 38 10 25 -5 32 -4 23 3 -12 8 -12 12 -2 25 8 9 12 15 10 15 -2 -1
-12 -3 -23 -6z"/>
<path d="M1078 2152 c-26 -17 -26 -18 -8 -30 27 -16 35 -15 20 3 -21 25 11 28
61 6 53 -25 70 -26 63 -6 -8 20 27 20 66 0 56 -29 80 -36 74 -21 -10 25 14 26
43 2 31 -26 80 -45 69 -27 -17 26 24 20 52 -9 27 -27 36 -30 66 -24 30 5 39 2
60 -22 20 -23 33 -29 68 -29 23 -1 52 -5 63 -9 16 -6 14 -3 -5 13 -15 12 -33
18 -45 15 -32 -8 -76 13 -73 33 3 15 -5 18 -47 18 -50 1 -75 9 -75 25 0 5 8
11 18 14 9 3 -14 3 -52 1 -61 -4 -69 -2 -73 15 -6 23 -44 27 -88 10 -35 -13
-72 4 -54 26 16 19 -10 19 -58 -1 -19 -8 -47 -15 -60 -15 -18 0 -24 4 -19 15
8 21 -32 19 -66 -3z"/>
<path d="M835 2128 c-41 -27 -45 -33 -29 -39 10 -4 26 -8 34 -8 12 -1 13 1 1
8 -19 12 -4 31 25 31 17 0 24 5 24 20 0 11 -1 20 -3 20 -2 0 -25 -14 -52 -32z"/>
<path d="M701 2105 c-52 -30 -71 -32 -71 -5 0 18 -3 19 -22 9 -13 -7 -36 -23
-51 -35 -33 -27 -57 -31 -57 -9 0 23 -14 18 -64 -20 -54 -41 -54 -41 -64 -16
-7 18 -8 18 -23 -3 -16 -20 -15 -21 15 -20 78 2 84 4 82 22 -1 15 7 17 69 14
51 -2 66 0 55 7 -13 10 -13 12 0 21 20 13 48 12 95 -5 50 -18 50 -18 35 0 -18
22 -2 38 35 32 29 -5 32 -3 28 14 -7 24 -9 24 -62 -6z"/>
<path d="M675 1970 c-3 -5 -15 -10 -25 -10 -12 0 -35 -21 -58 -53 -50 -67 -67
-81 -92 -74 -14 4 -25 -2 -36 -19 -9 -13 -22 -24 -30 -24 -33 0 -130 -182
-117 -218 4 -10 1 -13 -8 -10 -15 6 -15 11 2 81 10 40 10 50 -1 57 -8 5 -10
15 -5 26 4 11 11 37 15 60 6 37 4 41 -12 36 -22 -5 -23 15 -3 42 18 24 19 66
3 89 -11 15 -12 9 -9 -34 3 -44 1 -51 -13 -46 -21 8 -22 -31 -1 -59 27 -35 16
-86 -13 -61 -13 10 -14 8 -8 -18 4 -16 14 -45 23 -62 17 -37 11 -68 -12 -59
-20 7 -19 3 9 -50 24 -46 24 -89 0 -80 -10 4 -11 -1 -3 -22 6 -15 17 -35 26
-44 18 -20 13 -53 -8 -52 -14 1 -13 -4 3 -37 10 -22 22 -39 27 -39 12 0 20
-35 11 -50 -4 -7 -13 -9 -20 -5 -16 10 25 -68 44 -84 20 -17 21 -41 1 -41 -11
0 -10 -7 7 -36 12 -20 27 -38 35 -41 7 -3 13 -14 13 -25 0 -14 -5 -18 -15 -14
-25 9 0 -28 41 -62 29 -24 35 -36 31 -53 -5 -17 3 -30 34 -58 41 -39 50 -61
23 -61 -13 0 -10 -6 10 -25 15 -14 31 -25 36 -25 11 0 40 -29 40 -41 0 -5 -7
-9 -16 -9 -27 0 3 -29 40 -38 38 -10 69 -57 47 -71 -11 -7 -10 -11 7 -20 33
-17 48 -14 29 7 -10 10 -17 26 -17 36 0 9 -11 34 -25 54 -16 24 -25 31 -25 19
0 -25 -18 -21 -25 6 -21 78 -29 97 -43 95 -10 -2 -21 13 -31 42 -9 25 -22 45
-28 46 -36 3 -37 4 -25 16 7 7 12 20 12 30 0 23 24 34 95 44 33 4 52 10 43 12
-10 2 -18 7 -18 11 0 19 29 31 74 32 28 0 45 3 39 6 -7 2 -13 12 -13 21 -1 15
-2 15 -14 0 -14 -19 -46 -24 -46 -8 0 21 -22 8 -41 -25 -20 -33 -59 -49 -59
-24 0 6 -13 1 -30 -11 l-30 -21 0 166 c0 151 2 166 17 163 23 -4 27 -71 7
-110 -26 -51 -14 -61 64 -53 37 4 69 9 71 11 2 1 -4 10 -12 18 -11 11 -17 12
-19 4 -3 -7 -7 -5 -11 5 -4 10 -2 17 6 17 24 0 -18 20 -43 20 -20 0 -22 2 -10
10 27 18 98 12 120 -10 25 -25 27 -60 3 -54 -16 5 -18 -2 -14 -53 2 -32 6 -52
8 -45 3 7 22 22 44 32 21 11 39 25 39 31 0 6 5 7 11 4 6 -4 8 -14 5 -24 -4
-11 -1 -10 11 4 10 12 26 24 36 28 15 5 17 21 17 117 l0 110 85 0 85 0 0 144
0 143 -47 -2 c-27 -1 -60 4 -75 11 -15 8 -32 14 -38 14 -6 0 -10 -53 -10 -155
l0 -155 -66 0 c-58 0 -65 2 -60 18 14 48 17 72 11 92 -6 20 -8 20 -24 6 -10
-9 -21 -16 -24 -16 -4 0 -7 36 -7 80 0 71 -2 80 -18 80 -28 0 -34 -11 -15 -26
15 -10 11 -13 -32 -19 -28 -3 -63 -9 -79 -12 -19 -3 -26 -2 -22 6 4 6 29 11
56 11 43 0 49 3 52 23 2 16 11 23 31 25 24 3 26 5 12 19 -14 14 -18 14 -35 -2
-11 -10 -22 -26 -25 -36 -4 -12 -16 -19 -30 -19 -19 0 -23 4 -18 18 3 9 -15
-3 -40 -27 -34 -33 -46 -39 -49 -27 -2 12 -13 7 -48 -24 -38 -33 -42 -39 -24
-40 15 0 21 6 20 18 -1 13 8 18 41 20 24 2 43 9 45 16 2 10 9 11 28 4 l25 -10
-22 -11 c-21 -9 -23 -17 -23 -88 0 -50 4 -79 12 -81 14 -5 4 -38 -12 -38 -5 0
-10 9 -10 20 0 18 -7 20 -75 20 l-75 0 0 -54 c0 -51 1 -54 22 -48 17 4 20 2
15 -12 -10 -26 3 -96 18 -96 16 0 24 -31 26 -95 0 -27 3 -44 6 -37 8 20 20 14
33 -18 7 -16 16 -30 21 -30 5 0 9 -4 9 -10 0 -22 -22 -8 -32 21 -7 20 -13 27
-18 19 -13 -20 -30 -1 -30 33 0 62 -12 106 -26 100 -10 -3 -14 3 -14 20 0 43
-12 87 -22 81 -18 -12 -26 18 -21 85 3 47 2 62 -6 51 -17 -24 -36 2 -21 29 12
24 4 91 -12 91 -6 0 -7 20 -2 53 4 28 8 62 9 74 1 13 5 26 9 30 10 9 2 -104
-8 -127 -5 -12 1 -16 24 -18 24 -2 43 8 84 43 34 29 56 41 62 35 7 -7 22 2 44
25 l34 35 -27 0 c-15 0 -27 -4 -27 -9 0 -6 -11 -6 -27 0 -16 5 -45 11 -65 14
-41 6 -50 24 -18 32 15 4 20 14 20 42 l0 37 123 52 c72 30 137 52 158 52 36 0
37 -1 54 -62 10 -35 25 -72 34 -84 16 -21 20 -21 69 5 26 13 46 6 38 -15 -7
-17 4 -17 27 0 35 27 5 83 -39 72 -21 -6 -24 -3 -24 23 0 24 6 31 31 40 18 6
41 11 53 11 33 0 390 -63 399 -70 4 -4 5 -19 1 -34 -4 -19 -13 -26 -30 -26
-13 0 -24 6 -24 13 0 8 -3 8 -9 -2 -5 -8 -18 -12 -30 -8 -12 3 -24 1 -27 -4
-3 -5 2 -9 11 -9 8 0 18 -7 22 -17 5 -14 8 -13 14 6 l9 21 20 -20 c11 -11 29
-20 40 -20 10 0 24 -8 29 -17 9 -16 10 -16 11 5 0 12 3 22 6 22 16 0 66 -45
74 -66 11 -29 30 -32 30 -4 0 11 -5 20 -11 20 -5 0 -7 5 -4 10 3 6 26 10 51
10 37 0 44 3 44 20 0 21 -34 45 -51 35 -5 -4 -28 -4 -49 0 -44 7 -54 31 -17
38 l22 4 -22 2 c-14 0 -23 7 -23 17 0 10 5 14 15 10 52 -21 51 -21 36 -3 -18
23 -10 30 23 18 14 -6 25 -7 25 -3 -3 19 2 23 15 13 11 -9 20 -10 35 -1 18 9
21 8 21 -12 0 -17 3 -19 12 -10 16 16 28 15 28 -3 0 -8 -11 -17 -25 -21 -14
-3 -25 -10 -25 -15 0 -5 13 -3 30 6 36 19 44 19 36 0 -3 -8 0 -15 7 -15 7 0
13 -8 14 -19 1 -16 -3 -18 -35 -10 -20 4 -41 4 -45 0 -12 -12 0 -48 16 -48 16
-1 88 -19 110 -28 10 -4 17 -3 17 5 0 6 5 8 10 5 6 -4 8 -10 5 -16 -3 -5 -1
-35 5 -67 9 -49 8 -64 -6 -92 -14 -27 -15 -39 -6 -64 14 -35 1 -56 -21 -38 -8
7 -17 9 -20 5 -4 -3 -7 -1 -7 5 0 16 23 15 39 0 11 -11 11 -9 1 11 -6 13 -10
36 -8 52 3 16 0 29 -6 30 -6 1 -20 2 -31 3 -11 1 -33 3 -48 4 -23 2 -27 5 -22
22 6 17 2 20 -29 20 l-36 0 0 -81 0 -81 80 4 80 3 1 -50 c2 -81 -2 -95 -24
-77 -10 8 -13 6 -13 -11 -1 -79 -4 -99 -18 -94 -16 6 -26 -31 -26 -94 0 -39
-16 -61 -30 -40 -4 8 -12 1 -20 -19 -11 -27 -15 -29 -27 -17 -12 12 -14 52
-13 206 0 133 -3 191 -10 191 -6 0 -9 4 -6 9 3 5 -4 11 -15 14 -21 6 -21 3
-15 -48 5 -43 3 -54 -10 -59 -25 -10 -27 -8 -22 24 3 17 2 30 -1 30 -3 0 -6
14 -7 31 -1 38 -10 46 -57 54 l-38 7 25 -55 c13 -31 22 -58 18 -61 -3 -4 4
-26 16 -50 16 -30 20 -53 16 -75 -8 -38 -17 -45 -44 -31 -18 10 -20 8 -20 -28
0 -34 4 -41 30 -52 16 -7 35 -25 42 -41 15 -34 38 -38 38 -7 0 15 3 19 10 12
15 -15 1 -44 -21 -44 -11 0 -24 11 -31 25 -6 14 -22 32 -35 41 -23 14 -26 14
-39 -3 -11 -15 -13 -15 -14 -3 0 16 -70 54 -70 39 0 -17 -29 -9 -39 10 -6 10
-23 23 -39 29 -23 8 -28 7 -28 -7 0 -13 7 -16 30 -13 26 4 28 2 23 -17 -5 -20
-1 -21 49 -21 40 0 54 -4 54 -14 0 -8 -6 -17 -12 -19 -7 -3 10 -6 38 -6 45 -1
74 -13 74 -32 0 -4 -8 -9 -17 -11 -10 -2 9 -8 42 -12 72 -10 95 -21 95 -46 0
-10 5 -22 11 -26 8 -5 6 -10 -5 -16 -9 -5 -20 -6 -26 -3 -5 3 -16 -16 -23 -42
-9 -31 -20 -48 -29 -47 -10 1 -22 -19 -34 -54 -11 -31 -25 -57 -32 -60 -8 -2
-10 3 -6 15 4 10 -5 1 -20 -19 -14 -20 -26 -43 -26 -50 0 -8 -7 -24 -16 -36
-17 -24 -6 -29 28 -11 17 9 18 13 7 20 -22 14 9 61 47 71 37 9 67 38 40 38
-29 0 -17 29 23 54 42 27 59 46 42 46 -17 0 -13 28 5 42 52 42 62 56 57 80 -4
19 3 30 31 52 40 30 67 70 41 60 -27 -11 -16 26 21 69 27 32 32 43 20 45 -20
4 -20 26 0 43 8 7 24 29 34 50 17 33 18 37 2 35 -24 -2 -26 29 -4 51 10 10 26
32 34 49 14 28 14 31 -1 30 -21 -1 -26 32 -8 52 9 9 20 29 26 44 8 21 7 26 -3
22 -26 -10 -27 29 -1 77 29 57 30 60 10 53 -25 -10 -28 24 -6 76 25 58 27 78
8 61 -29 -23 -36 19 -12 65 20 39 20 65 -1 57 -14 -5 -16 1 -13 45 4 45 3 49
-11 34 -18 -19 -15 -76 6 -93 21 -17 18 -42 -4 -37 -16 5 -18 1 -11 -36 4 -23
10 -51 14 -63 5 -16 3 -23 -5 -23 -15 0 -6 -85 11 -106 12 -14 4 -34 -13 -34
-5 0 -8 7 -4 15 8 21 -16 70 -45 93 -13 11 -47 54 -74 96 -28 42 -53 76 -57
76 -4 0 -13 -19 -20 -42 -9 -35 -13 -38 -16 -20 -2 13 1 37 7 54 13 36 6 50
-47 101 l-39 38 -15 -23 c-8 -13 -19 -36 -24 -53 -8 -27 -9 -24 -12 28 -4 74
-20 75 -90 4 l-51 -52 29 -52 c16 -28 34 -54 40 -58 5 -3 10 -11 10 -16 0 -11
-50 26 -109 81 -19 18 -31 24 -27 15 5 -13 2 -16 -11 -10 -10 4 -35 9 -55 12
-29 4 -39 2 -44 -11 -5 -13 -22 -16 -93 -16 -80 -1 -101 -5 -206 -44 -12 -5
-4 7 21 32 l40 39 -24 22 c-13 11 -28 21 -34 21 -6 0 -17 8 -25 18 -14 16 -14
16 -9 0 9 -31 -8 -19 -34 21 -27 44 -70 65 -85 41z m28 -17 c2 -10 8 -27 12
-38 5 -15 1 -14 -19 8 -15 16 -24 33 -21 38 10 14 22 11 28 -8z m-21 -544 c15
-8 27 -8 44 0 20 9 24 8 24 -7 0 -31 -19 -84 -41 -117 -21 -30 -27 -32 -85
-34 -58 -2 -88 9 -65 24 6 3 6 16 0 34 -7 20 -7 42 1 70 11 40 12 41 56 41 25
0 55 -5 66 -11z m58 -125 c0 -7 -27 -34 -34 -34 -4 0 -1 9 6 20 12 19 28 27
28 14z m-118 -148 c15 -21 7 -31 -8 -11 -16 20 -16 20 -10 0 5 -16 1 -21 -14
-22 -21 -2 -24 5 -15 30 7 16 37 19 47 3z m-65 -28 c-3 -8 -6 -5 -6 6 -1 11 2
17 5 13 3 -3 4 -12 1 -19z m988 -158 c3 -5 2 -10 -4 -10 -5 0 -13 5 -16 10 -3
6 -2 10 4 10 5 0 13 -4 16 -10z"/>
<path d="M638 1778 c-27 -9 -28 -13 -28 -75 0 -37 2 -64 5 -61 5 5 56 149 52
147 -1 0 -14 -5 -29 -11z"/>
<path d="M960 1773 c0 -8 9 -26 20 -40 11 -14 21 -33 21 -42 1 -9 4 0 8 19 5
29 10 35 31 35 21 0 26 -5 28 -32 4 -40 19 -43 24 -5 2 19 9 28 26 30 19 3 22
-1 22 -27 0 -36 17 -42 22 -9 5 34 36 35 44 2 7 -27 7 -27 15 -6 11 28 37 28
48 0 l8 -22 5 22 c8 28 26 28 37 0 l8 -22 5 22 c7 26 20 22 -204 61 -140 23
-168 26 -168 14z"/>
<path d="M922 1764 c-7 -8 -8 -14 -3 -14 10 0 25 19 20 25 -2 1 -10 -3 -17
-11z"/>
<path d="M560 1690 c0 -47 3 -60 15 -60 12 0 15 13 15 60 0 47 -3 60 -15 60
-12 0 -15 -13 -15 -60z"/>
<path d="M517 1723 c-4 -3 -7 -26 -7 -50 0 -32 4 -43 15 -43 11 0 15 12 15 50
0 46 -7 60 -23 43z"/>
<path d="M665 1720 c-3 -6 1 -7 9 -4 18 7 21 14 7 14 -6 0 -13 -4 -16 -10z"/>
<path d="M730 1726 c0 -2 7 -7 16 -10 8 -3 12 -2 9 4 -6 10 -25 14 -25 6z"/>
<path d="M1530 1723 c0 -6 9 -18 20 -28 20 -18 21 -18 14 0 -5 12 -4 16 4 11
8 -5 10 -1 5 10 -4 12 -8 14 -11 6 -3 -10 -7 -10 -18 -1 -8 6 -14 7 -14 2z"/>
<path d="M1027 1683 c-4 -24 -13 -43 -19 -43 -7 0 -3 -6 7 -14 25 -18 63 -2
45 19 -8 10 -7 14 2 18 9 4 7 6 -4 6 -10 1 -18 11 -20 29 -3 23 -5 20 -11 -15z"/>
<path d="M1102 1695 c0 -16 2 -22 5 -12 2 9 2 23 0 30 -3 6 -5 -1 -5 -18z"/>
<path d="M483 1670 c0 -25 2 -35 4 -22 2 12 2 32 0 45 -2 12 -4 2 -4 -23z"/>
<path d="M1170 1690 c0 -14 -9 -21 -36 -26 -25 -5 -32 -10 -25 -17 8 -8 3 -15
-17 -24 -28 -14 -3 -12 32 3 15 6 18 4 13 -8 -5 -13 -1 -14 24 -5 26 10 27 12
10 19 -20 7 -38 28 -24 28 5 0 14 -5 21 -12 9 -9 12 -4 12 25 0 20 -2 37 -5
37 -3 0 -5 -9 -5 -20z"/>
<path d="M453 1665 c0 -22 2 -30 4 -17 2 12 2 30 0 40 -3 9 -5 -1 -4 -23z"/>
<path d="M1500 1690 c-24 -8 -23 -8 8 -9 20 -1 31 3 27 9 -3 6 -7 10 -8 9 -1
-1 -13 -5 -27 -9z"/>
<path d="M644 1669 c-9 -16 2 -22 21 -11 15 8 16 10 1 15 -8 3 -18 2 -22 -4z"/>
<path d="M751 1671 c-10 -6 -9 -10 5 -15 20 -8 25 -4 16 11 -4 7 -13 9 -21 4z"/>
<path d="M865 1653 c-11 -3 -31 -16 -44 -29 l-24 -24 22 0 c12 0 20 4 17 9 -9
13 19 32 38 25 11 -4 16 -1 16 10 0 9 -1 15 -2 15 -2 -1 -12 -4 -23 -6z"/>
<path d="M945 1649 c-4 -6 -16 -14 -26 -17 -17 -7 -16 -9 10 -19 25 -9 29 -8
24 5 -5 11 -2 14 10 9 39 -16 51 -18 29 -5 -17 11 -20 16 -10 26 9 9 7 12 -9
12 -12 0 -25 -5 -28 -11z"/>
<path d="M1196 1646 c3 -8 15 -14 27 -13 16 1 22 -3 21 -19 0 -16 5 -20 23
-16 l23 4 -23 23 c-29 30 -80 45 -71 21z"/>
<path d="M760 1620 c-12 -8 -10 -10 8 -10 13 0 20 4 17 10 -7 12 -6 12 -25 0z"/>
<path d="M1300 1620 c0 -5 11 -10 25 -10 16 0 25 -6 25 -15 0 -8 -5 -15 -11
-15 -5 0 -7 5 -3 11 5 9 -4 10 -32 4 -21 -5 -49 -9 -61 -9 -23 -1 -23 -3 -23
-138 l0 -138 45 0 c25 0 48 0 53 0 4 -1 10 15 14 35 4 19 15 46 24 60 13 20
20 23 35 14 10 -5 43 -12 72 -15 28 -3 58 -7 65 -9 6 -2 12 -1 12 4 0 17 -92
53 -121 47 l-29 -5 0 63 0 64 -45 -6 c-32 -3 -45 -1 -45 8 0 8 8 10 24 6 57
-14 69 24 14 43 -38 13 -38 13 -38 1z"/>
<path d="M1220 1609 c0 -5 5 -7 10 -4 6 3 10 8 10 11 0 2 -4 4 -10 4 -5 0 -10
-5 -10 -11z"/>
<path d="M1406 1605 c4 -9 0 -15 -7 -16 -8 -1 0 -4 16 -8 21 -4 31 -13 33 -28
3 -19 10 -22 55 -25 42 -2 54 -7 62 -25 7 -17 19 -23 50 -25 31 -2 40 -7 39
-20 -1 -12 5 -18 17 -18 16 0 17 3 8 18 -16 25 -83 67 -76 47 10 -25 -5 -17
-52 28 -24 23 -41 34 -38 25 5 -14 1 -18 -18 -18 -17 0 -29 9 -40 30 -17 32
-59 63 -49 35z"/>
<path d="M605 1600 c3 -5 1 -10 -4 -10 -6 0 -11 -9 -11 -20 0 -11 4 -20 8 -20
12 0 32 46 25 54 -10 10 -25 7 -18 -4z"/>
<path d="M717 1596 c-6 -15 29 -33 40 -22 4 3 1 6 -5 6 -7 0 -12 7 -12 15 0
19 -16 20 -23 1z"/>
<path d="M1604 1589 c-4 -7 -22 -9 -45 -6 -22 3 -39 4 -39 2 0 -2 14 -17 32
-34 21 -19 36 -27 43 -21 7 6 29 -6 62 -35 39 -34 58 -44 81 -42 27 2 29 4 21
25 -5 13 -9 39 -9 58 0 19 -4 34 -10 34 -5 0 -10 -7 -10 -15 0 -19 -10 -19
-35 -1 -11 7 -35 17 -53 21 -18 3 -30 11 -26 16 3 5 3 9 0 9 -3 0 -8 -5 -12
-11z"/>
<path d="M1541 1354 c0 -11 3 -14 6 -6 3 7 2 16 -1 19 -3 4 -6 -2 -5 -13z"/>
<path d="M1050 1206 c0 -87 -3 -107 -16 -114 -9 -5 -14 -14 -10 -21 11 -18 37
-13 43 8 8 30 51 36 77 12 28 -26 32 -26 39 1 5 18 8 19 22 8 14 -12 15 -3 13
96 l-3 109 -82 3 -83 3 0 -105z"/>
<path d="M1322 1240 c0 -14 2 -19 5 -12 2 6 2 18 0 25 -3 6 -5 1 -5 -13z"/>
<path d="M1386 1195 c4 -18 1 -32 -12 -46 -14 -15 -15 -22 -5 -32 10 -9 11 -9
6 4 -3 9 1 22 10 29 17 14 21 70 5 70 -6 0 -8 -11 -4 -25z"/>
<path d="M864 1076 c-17 -8 -34 -22 -38 -31 -4 -12 -14 -16 -30 -13 -14 3 -31
1 -38 -3 -8 -5 7 -9 38 -9 43 0 52 3 50 18 -1 12 6 17 24 15 19 -1 26 4 26 18
0 10 0 19 -1 19 0 -1 -14 -7 -31 -14z"/>
<path d="M933 1071 c-24 -20 -21 -31 9 -31 10 0 18 7 18 15 0 13 4 14 21 5 11
-6 25 -9 32 -6 7 2 2 8 -10 11 -13 4 -20 11 -17 16 10 16 -31 9 -53 -10z"/>
<path d="M1105 1080 c3 -5 -1 -10 -9 -10 -8 0 -18 -5 -22 -12 -5 -7 -1 -9 12
-6 43 12 49 12 47 1 -3 -14 7 -16 31 -7 13 5 12 9 -8 25 -25 20 -62 26 -51 9z"/>
<path d="M750 536 c0 -8 7 -19 15 -26 18 -15 20 -47 3 -53 -15 -6 53 -37 80
-37 18 0 42 -18 42 -31 0 -4 -8 -9 -17 -11 -14 -3 -10 -8 15 -22 19 -9 40 -15
48 -12 9 3 34 -3 57 -14 l42 -21 -40 36 c-22 20 -41 31 -43 26 -7 -22 -33 -10
-47 22 -7 17 -25 43 -39 56 -22 21 -26 22 -26 7 0 -26 -22 -14 -33 18 -11 32
-57 82 -57 62z"/>
<path d="M1312 525 c-13 -14 -27 -37 -31 -52 -8 -31 -31 -43 -31 -17 0 15 -4
14 -26 -7 -14 -13 -32 -39 -39 -56 -14 -32 -40 -44 -47 -22 -2 5 -21 -6 -43
-26 l-40 -36 42 21 c23 11 48 17 57 14 8 -3 29 3 48 12 25 14 29 19 16 22 -10
2 -18 7 -18 11 0 13 24 31 42 31 10 0 35 7 55 15 33 14 35 17 19 28 -16 12
-16 14 4 40 28 36 22 53 -8 22z"/>
<path d="M130 2060 c0 -15 5 -20 18 -18 9 2 17 10 17 18 0 8 -8 16 -17 18 -13
2 -18 -3 -18 -18z"/>
<path d="M1922 2063 c2 -10 10 -18 18 -18 8 0 16 8 18 18 2 12 -3 17 -18 17
-15 0 -20 -5 -18 -17z"/>
<path d="M1916 1794 c-26 -26 -18 -34 34 -34 34 0 50 4 50 13 0 35 -56 50 -84
21z"/>
<path d="M1898 1519 c-29 -17 -21 -27 27 -35 55 -8 63 -2 36 25 -23 23 -37 25
-63 10z"/>
<path d="M130 1600 c0 -5 4 -10 9 -10 6 0 13 5 16 10 3 6 -1 10 -9 10 -9 0
-16 -4 -16 -10z"/>
<path d="M1715 889 c-9 -13 27 -40 39 -29 12 12 0 40 -18 40 -8 0 -18 -5 -21
-11z"/>
<path d="M420 680 c0 -5 5 -10 10 -10 6 0 10 5 10 10 0 6 -4 10 -10 10 -5 0
-10 -4 -10 -10z"/>
<path d="M1600 666 c0 -9 9 -20 20 -26 16 -8 20 -8 20 4 0 9 -9 20 -20 26 -16
8 -20 8 -20 -4z"/>
<path d="M1301 361 c-13 -9 -10 -14 47 -91 5 -7 32 32 32 47 0 17 -36 53 -52
53 -7 0 -19 -4 -27 -9z"/>
<path d="M905 210 c-3 -5 -1 -10 4 -10 6 0 11 5 11 10 0 6 -2 10 -4 10 -3 0
-8 -4 -11 -10z"/>
</g>
</svg>
